Coordinates
version=1
nRows=8
nColumns=40
inDegrees=yes

Units are S.I. units (second, meters, Newtons, ...)
Angles are in degrees.

endheader
time	pelvis_tilt	pelvis_list	pelvis_rotation	pelvis_tx	pelvis_ty	pelvis_tz	hip_flexion_r	hip_adduction_r	hip_rotation_r	knee_angle_r	knee_angle_r_beta	ankle_angle_r	subtalar_angle_r	mtp_angle_r	hip_flexion_l	hip_adduction_l	hip_rotation_l	knee_angle_l	knee_angle_l_beta	ankle_angle_l	subtalar_angle_l	mtp_angle_l	lumbar_extension	lumbar_bending	lumbar_rotation	arm_flex_r	arm_add_r	arm_rot_r	elbow_flex_r	pro_sup_r	wrist_flex_r	wrist_dev_r	arm_flex_l	arm_add_l	arm_rot_l	elbow_flex_l	pro_sup_l	wrist_flex_l	wrist_dev_l
      1.46000000	      1.20816763	     -3.60290997	      4.90451979	     -0.24981109	      0.87915060	     -1.03438419	     22.93174634	      2.73241556	    -22.68619112	    -18.83736720	     -0.32877408	     -7.92876351	     -5.05471397	     -2.73606389	    -13.65216045	      2.92204764	      7.40344035	    -22.59088624	     -0.39428535	      5.25444846	    -11.24132529	     -7.26976160	     -6.98239227	      6.84893503	     -5.81548337	     -2.62647474	     -7.61136167	     18.84593468	     13.97052291	     89.95437384	      0.00000000	      0.00000000	     13.91962673	     12.35902127	     -8.81390921	     41.81228017	     89.95437384	      0.00000000	      0.00000000
      1.47000000	      0.94561882	     -4.13096733	      4.58874275	     -0.23825388	      0.87926792	     -1.03335289	     22.96449679	      3.64280885	    -21.42420543	    -19.65990428	     -0.34313006	     -7.18048546	     -6.34397517	     -2.28922341	    -12.91721670	      3.79493936	      8.37907451	    -24.65281963	     -0.43027287	      3.48026584	    -11.76363405	     -7.62187230	     -6.46564632	      7.40316463	     -5.25727913	     -2.71607085	     -7.79112781	     19.34885727	     13.90526453	     89.95437384	      0.00000000	      0.00000000	     13.27414976	     11.96007060	     -8.55404106	     41.71666761	     89.95437384	      0.00000000	      0.00000000
      1.48000000	      0.87542387	     -4.70062284	      4.49719886	     -0.22657561	      0.88006850	     -1.03274779	     22.66046695	      4.42974853	    -20.82111752	    -20.35676163	     -0.35529252	     -6.22895119	     -6.53170530	     -1.73313256	    -12.20771536	      4.71849860	      8.87295034	    -26.90129316	     -0.46951614	      1.42518031	    -11.48582970	     -7.96816765	     -6.14217581	      8.04394075	     -4.92566534	     -2.72583018	     -7.96721023	     19.67883832	     13.77944461	     89.95437384	      0.00000000	      0.00000000	     12.58694758	     11.51836903	     -8.18448997	     41.56518680	     89.95437384	      0.00000000	      0.00000000
      1.49000000	      0.92372540	     -5.01418278	      4.36389064	     -0.21487788	      0.88145483	     -1.03243215	     22.18259063	      4.82510118	    -20.46810625	    -21.15160474	     -0.36916514	     -5.15900031	     -6.41235138	     -1.69315486	    -11.57088211	      5.20677899	      8.92844929	    -29.12986715	     -0.50841209	     -0.71053692	     -9.91132110	     -7.48607264	     -5.97719784	      8.43305777	     -4.55870076	     -2.64766482	     -8.09348262	     19.76557759	     13.61669124	     89.95437384	      0.00000000	      0.00000000	     11.96221186	     11.07884512	     -7.97562746	     41.16467622	     89.95437384	      0.00000000	      0.00000000
      1.50000000	      0.96218446	     -5.42183823	      4.27151073	     -0.20314134	      0.88302538	     -1.03193511	     21.48208888	      5.36796219	    -20.20268918	    -21.52865936	     -0.37574599	     -4.09371685	     -6.26327769	     -1.60566855	    -10.64119758	      5.95339879	      9.24995137	    -31.67328891	     -0.55280318	     -3.34628683	     -8.75752798	     -7.04370568	     -5.77774352	      8.90585351	     -4.26523925	     -2.51726290	     -8.21674343	     19.98918089	     13.38963588	     89.95437384	      0.00000000	      0.00000000	     11.26142728	     10.63390205	     -7.62820893	     40.68099095	     89.95437384	      0.00000000	      0.00000000
      1.51000000	      0.87054555	     -6.26094789	      4.13632778	     -0.19153789	      0.88432556	     -1.03075936	     20.68577401	      6.56355497	    -19.78502452	    -21.27628090	     -0.37134115	     -3.47811580	     -6.28600470	     -0.90208052	     -9.23842584	      7.54909354	     10.28281571	    -34.66287106	     -0.60498123	     -6.85895380	     -9.42031891	     -7.14458691	     -5.42538405	      9.78972688	     -3.96355792	     -2.37037833	     -8.44600040	     20.64595715	     13.32628710	     89.95437384	      0.00000000	      0.00000000	     10.44989518	     10.20964470	     -7.22499045	     40.28363971	     89.95437384	      0.00000000	      0.00000000
      1.52000000	      0.90120358	     -6.53862620	      3.95369356	     -0.18014980	      0.88597735	     -1.03001179	     19.77731156	      7.02846748	    -19.60809630	    -21.24727419	     -0.37083489	     -2.56845133	     -5.92073589	     -0.75061499	     -8.08712262	      8.14381666	     10.25298959	    -37.11899077	     -0.64784860	    -10.35743776	     -7.75246494	     -6.56815044	     -5.28153722	     10.08158295	     -3.57084404	     -2.09030890	     -8.53462946	     20.32813355	     13.15714985	     89.95437384	      0.00000000	      0.00000000	      9.81677669	      9.85383016	     -7.14972460	     39.60819630	     89.95437384	      0.00000000	      0.00000000
      1.53000000	      0.92514262	     -6.81550612	      3.81448458	     -0.16919980	      0.88741714	     -1.02912969	     18.81918437	      7.52053327	    -19.51518840	    -20.99331767	     -0.36640251	     -1.86204261	     -5.41219749	     -0.59111753	     -6.70837024	      8.79760397	     10.07614208	    -39.70438217	     -0.69297220	    -13.64683633	     -6.24839904	     -6.12550314	     -5.20741781	     10.35176581	     -3.21243828	     -1.82181815	     -8.62125038	     20.29491727	     13.12581114	     89.95437384	      0.00000000	      0.00000000	      9.25300802	      9.58233950	     -7.18270774	     38.89668689	     89.95437384	      0.00000000	      0.00000000
